<?xml version="1.0" encoding="UTF-8"?>
<svg id="Capa_1" data-name="Capa 1" xmlns="http://www.w3.org/2000/svg" viewBox="0 0 512 512">
  <defs>
    <style>
      .cls-1 {
        fill: #fff;
        fill-rule: evenodd;
        stroke-width: 0px;
      }
    </style>
  </defs>
  <path class="cls-1" d="M512,199.35c0,6.92-3.95,12.92-9.71,15.88-.13.07-.26.13-.39.19l-152.58,76.29-75.49,37.74c0-.34-.01-.68-.01-1.02,0-13.29,5.56-25.29,14.47-33.79.08-.08.17-.15.25-.23,9.01-8.59,14.63-20.72,14.63-34.15,0-26.06-21.12-47.18-47.18-47.18s-47.18,21.12-47.18,47.18c0,13.44,5.62,25.56,14.63,34.15.08.08.17.15.25.23,8.91,8.5,14.47,20.5,14.47,33.79,0,.34,0,.67-.01,1.01l-75.47-37.74-101.14-50.57v36.91c0,.18,0,.37,0,.55s0,.37,0,.55c.07,2.39.62,4.66,1.54,6.72.21.47.44.92.68,1.37l12.63,25.26c.08.15.15.3.23.45,1.12,2.33,1.75,4.94,1.75,7.7,0,9.28-7.09,16.9-16.14,17.75h-28c-9.59-.29-17.28-8.16-17.28-17.82,0-2.75.62-5.36,1.74-7.69.08-.18.18-.36.27-.54l12.83-25.66c.07-.13.13-.26.19-.39,1.13-2.34,1.76-4.96,1.76-7.73,0-.46-.02-.91-.05-1.37h0s.03-49.99.03-49.99l-23.6-11.8c-.13-.06-.26-.13-.39-.19-5.77-2.95-9.71-8.95-9.71-15.88s3.91-12.87,9.63-15.84c.18-.1.36-.19.54-.27l237.3-118.65s.03-.02.04-.02l1.16-.58c2.24-1.01,4.72-1.57,7.34-1.57s5.1.56,7.34,1.57l1.16.58s.03.01.04.02l237.3,118.65c.18.08.36.18.54.27,5.72,2.97,9.63,8.94,9.63,15.84Z"/>
  <path class="cls-1" d="M395.02,319.07v73.85c0,31.29-62.24,56.66-139.02,56.66s-139.02-25.37-139.02-56.66v-73.85c0-3.84,1.56-7.31,4.07-9.83,2.52-2.51,5.99-4.07,9.83-4.07,1.74,0,3.4.32,4.93.9l2.48,1.24,9.47,4.73,56.54,28.27,26.52,13.26,16.3,8.15c.58.34,1.19.64,1.81.9,2.17.94,4.55,1.46,7.07,1.46,2.69,0,5.24-.6,7.53-1.67.28-.13.55-.26.82-.41l16.84-8.42,26.54-13.27,56.51-28.26,9.48-4.75,2.47-1.24c1.53-.59,3.2-.9,4.94-.9,3.84,0,7.31,1.56,9.83,4.07,2.51,2.52,4.07,5.99,4.07,9.83Z"/>
</svg>