<?xml version="1.0" encoding="UTF-8"?>
<svg id="Capa_1" data-name="Capa 1" xmlns="http://www.w3.org/2000/svg" viewBox="0 0 512 512">
  <defs>
    <style>
      .cls-1 {
        fill: #fff;
        fill-rule: evenodd;
      }

      .cls-1, .cls-2 {
        stroke-width: 0px;
      }

      .cls-2 {
        fill: #083db2;
      }
    </style>
  </defs>
  <rect class="cls-2" x="0" y="0" width="512" height="512" rx="256" ry="256"/>
  <g>
    <path class="cls-1" d="M462,210.41c0,5.57-3.17,10.4-7.82,12.78-.1.05-.21.1-.31.16l-122.78,61.39-60.74,30.37c0-.27-.01-.55-.01-.82,0-10.7,4.47-20.35,11.65-27.19.07-.06.13-.12.2-.19,7.25-6.92,11.77-16.67,11.77-27.48,0-20.97-17-37.97-37.97-37.97s-37.96,17-37.96,37.97c0,10.81,4.52,20.57,11.77,27.48.07.06.13.12.2.19,7.17,6.84,11.64,16.49,11.64,27.19,0,.27,0,.54-.01.81l-60.73-30.36-81.39-40.69v29.7c0,.15,0,.3,0,.44s0,.3,0,.44c.06,1.92.5,3.75,1.24,5.41.17.38.35.74.55,1.1l10.16,20.33c.06.12.12.24.18.36.9,1.88,1.41,3.98,1.41,6.2,0,7.46-5.7,13.6-12.99,14.28h-22.53c-7.72-.24-13.9-6.57-13.9-14.34,0-2.21.5-4.31,1.4-6.19.07-.15.14-.29.22-.43l10.32-20.65c.05-.1.1-.21.16-.31.91-1.88,1.42-3.99,1.42-6.22,0-.37-.01-.73-.04-1.1h0s.02-40.23.02-40.23l-18.99-9.5c-.1-.05-.21-.1-.31-.16-4.64-2.38-7.82-7.21-7.82-12.78s3.14-10.36,7.75-12.74c.14-.08.29-.15.43-.22l190.95-95.47s.02-.01.03-.02l.93-.47c1.8-.82,3.8-1.27,5.9-1.27s4.1.45,5.9,1.27l.93.47s.02.01.03.02l190.95,95.47c.14.07.29.14.43.22,4.6,2.39,7.75,7.2,7.75,12.74Z"/>
    <path class="cls-1" d="M367.87,306.75v59.43c0,25.18-50.08,45.59-111.87,45.59s-111.87-20.41-111.87-45.59v-59.43c0-3.09,1.25-5.88,3.28-7.91,2.03-2.02,4.82-3.28,7.91-3.28,1.4,0,2.74.26,3.97.72l2,1,7.62,3.81,45.49,22.75,21.34,10.67,13.11,6.56c.47.27.95.51,1.46.73,1.74.75,3.66,1.17,5.69,1.17,2.17,0,4.22-.48,6.06-1.34.22-.1.44-.21.66-.33l13.55-6.78,21.35-10.68,45.47-22.74,7.63-3.82,1.99-.99c1.23-.47,2.57-.73,3.98-.73,3.09,0,5.88,1.25,7.91,3.28,2.02,2.03,3.28,4.82,3.28,7.91Z"/>
  </g>
</svg>