<svg version="1.1" id="Layer_1" xmlns="http://www.w3.org/2000/svg" xmlns:xlink="http://www.w3.org/1999/xlink" x="0px" y="0px"
	 viewBox="0 0 340.495 450.069" style="enable-background:new 0 0 340.495 450.069;" xml:space="preserve">
<g>
	<path style="fill:#3C1600;" d="M309.989,238.158c-1.441-7.012-3.879-13.76-6.421-20.436c-2.581-6.779-5.189-13.547-7.458-20.439
		c-2.361-7.17-4.384-14.49-5.427-21.979c-1.033-7.425-1.051-15.007-0.943-22.49c0.206-14.245,1.418-28.461,0.741-42.712
		c-0.625-13.167-2.728-26.347-7.402-38.717c-4.369-11.563-10.862-22.414-19.361-31.418c-15.172-16.074-35.865-24.806-57.158-29.339
		c-7.499-2.257-15.347-3.39-23.191-3.748c-2.835-0.129-5.674-0.156-8.512-0.1c-2.838-0.056-5.676-0.029-8.511,0.1
		c-7.844,0.358-15.692,1.492-23.191,3.748c-21.293,4.533-41.986,13.265-57.158,29.339C77.5,48.971,71.007,59.821,66.638,71.384
		c-4.674,12.37-6.777,25.55-7.402,38.717c-0.676,14.251,0.536,28.467,0.741,42.712c0.108,7.483,0.09,15.065-0.943,22.49
		c-1.042,7.489-3.065,14.809-5.426,21.979c-2.269,6.892-4.877,13.66-7.458,20.439c-2.542,6.675-4.979,13.424-6.421,20.436
		c-1.209,5.884-1.517,11.801-0.815,17.765c0.609,5.182,1.838,10.476,4.413,15.059c1.168,2.08,2.67,3.981,4.572,5.438
		c0.644,0.493,2.077-0.434,1.762-1.235c-2.933-7.462-3.416-15.679-2.818-23.607c0.394-5.215,1.272-10.454,2.757-15.499
		c-1.132,9.191-1.532,18.74,1.76,27.378c0.807,2.119,1.774,4.351,3.408,5.968c1.352,1.338,3.005,2.271,4.769,2.956
		c4.214,1.637,8.95,1.902,13.425,1.941c4.806,0.042,9.589-0.394,14.389-0.534c0.639-0.019,1.597-0.65,1.367-1.412
		c-2.088-6.915-3.757-13.985-4.496-21.181c-0.48-4.676-0.589-9.541,0.167-14.232c0.025,6.903,0.354,13.84,1.806,20.569
		c0.496,2.301,1.134,4.575,1.959,6.78c0.693,1.854,1.438,3.823,2.68,5.389c2.082,2.625,5.246,3.971,8.455,4.622
		c3.473,0.705,7.033,0.739,10.562,0.844c5.171,0.154,10.335,0.269,15.51,0.228c10.987-0.089,21.963-0.616,32.942-0.967
		c1.179-0.038,2.359-0.071,3.539-0.104c0.705,0.111,1.489-0.025,2.168-0.048c1.049-0.036,2.098-0.057,3.147-0.08
		c2.568-0.05,5.136-0.075,7.705-0.079c2.568,0.004,5.137,0.029,7.705,0.079c1.049,0.024,2.098,0.045,3.147,0.08
		c0.679,0.023,1.463,0.159,2.168,0.048c1.18,0.033,2.359,0.066,3.539,0.104c10.98,0.351,21.956,0.879,32.942,0.967
		c5.174,0.042,10.338-0.074,15.51-0.228c3.529-0.105,7.089-0.139,10.562-0.844c3.209-0.651,6.373-1.998,8.454-4.622
		c1.242-1.565,1.987-3.535,2.68-5.389c0.825-2.206,1.462-4.48,1.959-6.78c1.452-6.729,1.781-13.666,1.806-20.569
		c0.755,4.691,0.646,9.557,0.166,14.232c-0.739,7.196-2.408,14.266-4.496,21.181c-0.23,0.761,0.728,1.393,1.367,1.412
		c4.8,0.14,9.583,0.576,14.389,0.534c4.474-0.039,9.211-0.304,13.424-1.941c1.764-0.685,3.417-1.618,4.769-2.956
		c1.634-1.617,2.601-3.849,3.408-5.968c3.292-8.638,2.892-18.186,1.76-27.378c1.485,5.045,2.364,10.284,2.757,15.499
		c0.598,7.928,0.115,16.145-2.818,23.607c-0.315,0.801,1.118,1.728,1.762,1.235c1.902-1.457,3.404-3.357,4.572-5.438
		c2.574-4.583,3.803-9.877,4.413-15.059C311.506,249.958,311.199,244.042,309.989,238.158z"/>
	<g>
		<path style="fill:#EFB291;" d="M248.203,327.492c0,0-31.089-15.313-42.69-25.521c-11.601-10.208-8.352-66.355-8.352-66.355
			h-22.737h-7.888h-22.737c0,0,3.248,56.146-8.352,66.355c-11.601,10.208-42.69,25.521-42.69,25.521s25.353,41.998,49.233,64.165
			c0,0,6.185,9.588,28.49,9.15c22.305,0.438,28.49-9.15,28.49-9.15C222.85,369.49,248.203,327.492,248.203,327.492z"/>
		<path style="opacity:0.64;fill:#EB936D;" d="M143.81,268.297c2.289,1.483,4.861,2.571,7.408,3.417
			c4.466,1.483,9.15,2.319,13.83,2.743c5.85,0.531,11.806,0.246,17.566-0.917c2.91-0.588,5.708-1.508,8.554-2.329
			c2.021-0.584,4.045-1.163,6.044-1.819c-1.027-16.92-0.052-33.775-0.052-33.775h-53.362
			C143.798,235.616,144.731,251.752,143.81,268.297z"/>
		<path style="opacity:0.55;fill:#EFB291;" d="M205.513,301.971c-1.295-1.14-2.404-2.856-3.355-4.999
			c-0.48,0.653-0.957,1.307-1.442,1.956c-5.639,7.543-32.057,45.753-32.218,45.591c-2.993-3.008-5.349-6.58-7.591-10.163
			c-2.007-3.208-4.013-6.399-6.127-9.538c-2.38-3.534-4.825-7.023-7.248-10.527c-3.417-4.942-6.799-9.926-9.879-15.088
			c-0.669,1.12-1.401,2.058-2.208,2.768c-11.601,10.208-42.69,25.521-42.69,25.521s25.353,41.998,49.233,64.165
			c0,0,6.185,9.588,28.49,9.15c22.305,0.438,28.49-9.15,28.49-9.15c23.881-22.167,49.233-64.165,49.233-64.165
			S217.113,312.179,205.513,301.971z"/>
		<path style="opacity:0.55;fill:#EFB291;" d="M151.938,256.166c2.693,1.355,5.545,2.545,8.494,3.21
			c2.687,0.606,5.436,0.898,8.19,0.923c5.684,0.052,11.332-1.02,16.728-2.76c3.925-1.265,7.726-2.891,11.393-4.779
			c-0.005-9.829,0.418-17.145,0.418-17.145h-53.362c0,0,0.389,6.723,0.417,15.936C146.691,253.251,149.256,254.816,151.938,256.166z
			"/>
		<path style="fill:#F7E3D3;" d="M120.597,301.507c0,0,9.164-6.923,11.31-4.854c2.146,2.07,56.436,88.377,56.436,88.377
			l-31.089,36.194C157.255,421.224,121.989,319.139,120.597,301.507z"/>
		<path style="fill:#F7E3D3;" d="M166.599,350.568c-2.73,3.15-5.13,6.581-7.418,10.06c-2.53,3.847-4.925,7.782-7.471,11.619
			c-2.431,3.663-4.855,7.329-7.256,11.012c6.994,21.155,12.801,37.964,12.801,37.964l31.089-36.194
			C188.344,385.03,178.252,368.986,166.599,350.568z"/>
		<path style="fill:#F7E3D3;" d="M215.257,301.507c0,0-9.164-6.923-11.31-4.854c-2.146,2.07-56.436,88.377-56.436,88.377
			l31.089,36.194C178.6,421.224,213.865,319.139,215.257,301.507z"/>
		<path style="fill:#F7E3D3;" d="M196.201,330.676c-5.961,11.236-11.93,22.468-17.98,33.656
			c-6.036,11.163-12.165,22.272-18.439,33.302c-0.192,0.337-0.382,0.676-0.573,1.014l19.392,22.576
			c0,0,35.266-102.084,36.658-119.717c0,0-1.077-0.814-2.58-1.8C207.158,310.015,201.681,320.346,196.201,330.676z"/>
		<path style="fill:#76CABD;" d="M203.254,443.319c-21.038-31.312-80.104-149.004-80.104-149.004
			c-2.784,0.928-8.352,6.496-8.352,6.496c1.67,60.115,25.874,129.241,30.714,142.508H203.254z"/>
		<path style="fill:#76CABD;" d="M149.964,430.897c-4.097-11.775-7.091-23.885-9.928-36.015c-2.948-12.607-5.649-25.27-8.648-37.865
			c-2.753-11.561-6.125-22.977-8.605-34.603c-1.811-8.49-3.185-17.217-3.133-25.928c-2.442,1.913-4.854,4.324-4.854,4.324
			c1.67,60.115,25.874,129.241,30.714,142.508h9.164C152.989,439.222,151.419,435.078,149.964,430.897z"/>
		<path style="fill:#76CABD;" d="M169.266,383.543c-2.53,3.339-5.044,6.689-7.518,10.069c-6.575,8.984-12.93,18.132-18.904,27.528
			c-1.076,1.692-2.135,3.396-3.185,5.105c2.628,8.089,4.746,14.043,5.852,17.074h57.743
			C195.482,431.752,182.522,408.397,169.266,383.543z"/>
		<path style="fill:#ED646F;" d="M127.751,443.319L87.42,321.691l-6.029,2.982c0,0-33.412,18.363-43.157,32.747
			c-8.727,12.882-28.988,73.395-33.127,85.898H127.751z"/>
		<path style="opacity:0.61;fill:#CD605C;" d="M82.568,351.192c1.449,10.259,3.433,20.439,5.792,30.526
			c2.3,9.835,5.254,19.504,8.759,28.976c3.472,9.382,7.469,18.563,11.799,27.579c0.811,1.688,1.637,3.368,2.47,5.046h16.363
			L87.42,321.691l-6.029,2.982c0,0-0.411,0.226-1.153,0.646C80.526,333.977,81.357,342.617,82.568,351.192z"/>
		<path style="fill:#76CABD;" d="M194.984,443.319c4.84-13.267,29.044-82.393,30.714-142.508c0,0-5.568-5.568-8.352-6.496
			c0,0-59.067,117.692-80.104,149.004H194.984z"/>
		<path style="fill:#76CABD;" d="M221.218,296.783c-0.041,0.257-0.082,0.515-0.124,0.772c-0.672,4.076-1.505,8.122-2.283,12.178
			c-2.45,12.781-5.367,25.486-8.108,38.209c-3.178,14.747-6.651,29.434-10.615,43.991c-1.987,7.297-4.098,14.561-6.355,21.78
			c-1.934,6.185-3.986,12.326-5.843,18.535c-1.106,3.699-2.213,7.401-3.417,11.07h10.51c4.84-13.267,29.044-82.393,30.714-142.508
			C225.698,300.811,223.527,298.64,221.218,296.783z"/>
		<path style="fill:#ED646F;" d="M335.387,443.319c-4.138-12.503-24.4-73.016-33.126-85.898
			c-9.744-14.385-43.157-32.747-43.157-32.747l-6.029-2.982l-40.331,121.627H335.387z"/>
		<path style="fill:#CD605C;" d="M237.526,426.801c3.355-8.822,6.211-17.828,8.758-26.914c2.467-8.803,4.717-17.688,6.645-26.625
			c1.915-8.879,4.026-17.721,5.488-26.691c1.144-7.018,1.968-14.21,1.676-21.345c-0.635-0.358-0.988-0.553-0.988-0.553l-6.029-2.982
			l-40.331,121.627h17.712C233.061,437.924,235.397,432.398,237.526,426.801z"/>
		<path style="fill:#ED646F;" d="M188.89,443.319h37.558c5.523-12.406,28.241-66.065,33.123-119.771
			c0,0-23.201-26.913-30.161-30.161c-6.96-3.248-8.95,2.959-8.95,2.959l2.453,2.146C222.913,298.491,208.69,398.64,188.89,443.319z"
			/>
		<path style="fill:#ED646F;" d="M151.605,443.319c-19.819-44.678-34.487-144.828-34.487-144.828l2.917-2.146
			c0,0-1.989-6.207-8.95-2.959c-6.96,3.248-30.161,30.161-30.161,30.161c4.882,53.706,27.6,107.365,33.123,119.771H151.605z"/>
	</g>
	<g>
		<g>
			<path style="fill:#EFB291;" d="M286.12,160.672c-2.383-9.255-12.176-14.265-21.707-11.213
				c-5.451,1.746-9.579,6.542-11.996,11.331c-1.408,2.791-2.279,5.852-2.8,8.908c-2.191,5.425-3.37,11.429-3.246,17.194
				c0.088,4.083,0.32,11.563,4.62,13.957c4.193,2.334,11.119-0.911,14.836-2.872c4.718-2.488,8.674-6.096,11.935-10.153
				C283.903,180.186,288.639,170.456,286.12,160.672z"/>
			<path style="opacity:0.64;fill:#EB936D;" d="M255.492,201.614c0.68-2.026,1.333-4.061,1.951-6.107
				c2.465-8.158,4.454-16.499,5.491-24.966c0.834-6.81,1.075-13.768,0.165-20.584c-4.801,2.044-8.464,6.438-10.681,10.833
				c-1.408,2.791-2.279,5.852-2.8,8.908c-2.191,5.425-3.37,11.429-3.246,17.194c0.088,4.083,0.32,11.563,4.62,13.957
				C252.289,201.57,253.848,201.756,255.492,201.614z"/>
			<path style="fill:#EB936D;" d="M281.643,160.773c-0.958-1.774-2.797-2.872-4.743-3.206c-4.479-0.768-9.239,2.21-12.221,5.293
				c-6.639,6.863-8.247,17.132-8.99,26.252c-0.044,0.534,0.755,0.195,0.828-0.175c0.286-1.464,0.576-2.951,0.887-4.444
				c0.133,1.083,0.351,2.151,0.572,3.109c0.434,1.881,1.522,3.579,3.574,3.775c4.954,0.472,8.64-5.307,11.181-8.596
				c0.239-0.309-0.26-0.421-0.457-0.212c-2.347,2.482-4.806,5.764-8.193,6.857c-2.727,0.88-3.837-1.115-4.475-3.36
				c-0.525-1.85-1.391-4.005-0.902-5.928c0.068-0.267-0.031-0.41-0.19-0.466c1.136-4.416,2.657-8.733,5.091-12.515
				c2.114-3.284,5.234-6.228,9.096-7.272c2.63-0.711,5.442-0.159,6.943,2.289c1.401,2.286,0.818,5.2,1.073,7.758
				c0.03,0.304,0.527,0.034,0.547-0.177C281.546,166.773,283.211,163.675,281.643,160.773z"/>
		</g>
		<g>
			<path style="fill:#EFB291;" d="M71.804,187.824c3.261,4.057,7.216,7.664,11.935,10.153c3.717,1.96,10.643,5.206,14.836,2.872
				c4.3-2.394,4.532-9.874,4.62-13.957c0.124-5.765-1.054-11.769-3.246-17.194c-0.521-3.056-1.391-6.117-2.8-8.908
				c-2.417-4.789-6.544-9.585-11.996-11.331c-9.531-3.052-19.324,1.958-21.707,11.213C60.928,170.456,65.665,180.186,71.804,187.824
				z"/>
			<path style="opacity:0.64;fill:#EB936D;" d="M94.075,201.614c-0.68-2.026-1.333-4.061-1.951-6.107
				c-2.465-8.158-4.454-16.499-5.491-24.966c-0.834-6.81-1.075-13.768-0.165-20.584c4.801,2.044,8.464,6.438,10.681,10.833
				c1.409,2.791,2.279,5.852,2.8,8.908c2.192,5.425,3.37,11.429,3.246,17.194c-0.088,4.083-0.32,11.563-4.62,13.957
				C97.278,201.57,95.719,201.756,94.075,201.614z"/>
			<path style="fill:#EB936D;" d="M67.924,160.773c0.958-1.774,2.797-2.872,4.743-3.206c4.479-0.768,9.239,2.21,12.221,5.293
				c6.639,6.863,8.247,17.132,8.99,26.252c0.043,0.534-0.756,0.195-0.828-0.175c-0.286-1.464-0.576-2.951-0.887-4.444
				c-0.133,1.083-0.351,2.151-0.572,3.109c-0.434,1.881-1.522,3.579-3.574,3.775c-4.954,0.472-8.64-5.307-11.181-8.596
				c-0.239-0.309,0.26-0.421,0.457-0.212c2.347,2.482,4.806,5.764,8.193,6.857c2.727,0.88,3.838-1.115,4.475-3.36
				c0.525-1.85,1.39-4.005,0.902-5.928c-0.068-0.267,0.031-0.41,0.19-0.466c-1.136-4.416-2.657-8.733-5.091-12.515
				c-2.114-3.284-5.234-6.228-9.096-7.272c-2.63-0.711-5.442-0.159-6.943,2.289c-1.401,2.286-0.818,5.2-1.073,7.758
				c-0.03,0.304-0.527,0.034-0.547-0.177C68.021,166.773,66.356,163.675,67.924,160.773z"/>
		</g>
		<path style="fill:#EFB291;" d="M259.981,76.467c-3.065-47.576-58.612-52.991-58.612-52.991
			c-8.112-1.881-18.987-0.482-28.038,1.458c-9.051-1.94-19.926-3.339-28.038-1.458c0,0-55.548,5.415-58.612,52.991
			c-3.065,47.576,4.214,121.067,9.96,138.859c5.53,17.124,30.578,50.363,66.601,55.597c3.79,1.021,7.321,1.241,10.089,1.164
			c2.768,0.077,6.299-0.143,10.089-1.164c36.023-5.234,61.071-38.474,66.601-55.597C255.767,197.534,263.046,124.043,259.981,76.467
			z"/>
		<path style="opacity:0.64;fill:#EB936D;" d="M169.435,204.582c-2.302-0.161-4.896-0.54-6.972-1.612
			c0.292,0.583,0.646,1.146,1.07,1.678c2.838,3.564,8.074,5.311,12.835,4.984c2.279-0.156,4.581-0.836,6.367-2.148
			c1.74-1.277,2.818-3.027,3.329-4.955c-1.367,0.483-2.793,0.837-4.222,1.125C177.805,204.47,173.567,204.871,169.435,204.582z"/>
		<path style="fill:#3C1600;" d="M192.562,132.934c0.845-0.33,1.678-0.686,2.509-0.975c2.441-0.848,5.007-1.416,7.533-1.948
			c4.694-0.989,9.566-1.477,14.35-1.76c4.722-0.279,9.416-0.119,14.105,0.519c4.114,0.56,8.221,1.415,12.212,2.569
			c2.746,0.794,5.564,1.777,8.018,3.305c-0.78-2.564-1.639-5.041-2.86-7.25c-1.293-1.76-2.855-3.31-4.817-4.507
			c-4.189-2.555-9.16-3.637-13.993-4.101c-4.857-0.466-9.763-0.32-14.615,0.132c-5.286,0.492-11.07,0.416-15.644,3.524
			c-1.989,1.352-3.561,3.319-4.759,5.382c-0.385,0.662-0.736,1.354-1.047,2.065c0.002,0.064-0.002,0.127,0.001,0.191
			c-0.135,0.265-0.267,0.521-0.391,0.776C192.914,131.535,192.709,132.229,192.562,132.934z"/>
		<g>
			<path style="fill:#FFFFFF;" d="M207.973,178.366c3.908,0.21,7.847-0.043,11.707-0.574c4.104-0.564,8.169-1.44,12.052-2.699
				c4.057-1.315,7.992-3.12,11.221-5.594c0.124-0.095,0.247-0.192,0.37-0.289c0.302-0.322,0.595-0.65,0.869-0.991
				c0.116-0.707,0.2-1.418,0.241-2.132c0.174-2.995-0.227-6.005-1.054-8.918c-0.81-2.856-2.039-5.614-4.298-7.896
				c-0.637-0.643-1.337-1.207-2.081-1.713c-0.235-0.102-0.466-0.209-0.709-0.303c-8.618-3.328-19.459-1.581-27.104,2.803
				c-2.496,1.432-4.585,3.258-6.192,5.356c-2.165,3.207-3.417,6.786-3.896,10.464c-0.475,3.638-0.294,7.308,0.131,10.948
				C201.999,177.761,205.003,178.207,207.973,178.366z"/>
			<g>
				<g>
					
						<ellipse transform="matrix(0.2359 -0.9718 0.9718 0.2359 10.3086 338.729)" style="fill:#92422B;" cx="220.54" cy="162.81" rx="14.656" ry="14.656"/>
					<path style="fill:#1A1716;" d="M231.452,162.946c-0.075,6.027-5.022,10.851-11.049,10.776
						c-6.027-0.075-10.851-5.022-10.776-11.049c0.075-6.027,5.022-10.851,11.049-10.776
						C226.703,151.973,231.527,156.919,231.452,162.946z"/>
					<path style="fill:#FFFFFF;" d="M219.21,156.768c-0.03,2.387-1.989,4.298-4.376,4.268c-2.387-0.03-4.298-1.989-4.268-4.376
						c0.03-2.387,1.989-4.297,4.376-4.268C217.329,152.422,219.24,154.381,219.21,156.768z"/>
					<path style="fill:#FFFFFF;" d="M211.396,163.066c-0.009,0.705-0.587,1.269-1.292,1.26c-0.705-0.009-1.269-0.587-1.26-1.292
						c0.009-0.705,0.587-1.269,1.292-1.26C210.84,161.783,211.404,162.361,211.396,163.066z"/>
				</g>
			</g>
			<path d="M205.52,158.509c1.414-1.901,2.997-3.671,4.811-5.19c3.685-3.085,8.059-4.668,12.785-5.329
				c2.626-0.367,5.346-0.42,7.962,0.06c1.152,0.211,2.286,0.513,3.41,0.853c3.256,0.689,6.528,1.512,9.869,1.545
				c1.578,0.016,3.245-0.147,4.665-0.889c0.883-0.461,1.565-1.125,2.067-1.924c-0.121-0.015-0.26,0.008-0.408,0.081
				c-5.433,2.68-11.166-0.287-16.376-2.067c-5.135-1.755-10.591-2.814-16.022-2.13c-5.224,0.658-10.311,3.02-13.838,6.982
				c-1.986,2.231-3.518,4.862-4.648,7.653c-0.578,2.525-0.918,5.115-1.136,7.668c-0.186,2.177-0.277,4.358-0.323,6.541
				c0.579-2.374,1.44-4.682,2.517-6.85C202.094,163.018,203.656,160.624,205.52,158.509z"/>
			<path style="fill:#6F2F1A;" d="M245.226,167.113c-0.182-0.055-0.412-0.034-0.612,0.109c-1.257,0.9-2.285,2.013-3.52,2.941
				c-1.187,0.893-2.487,1.669-3.833,2.382c-2.685,1.421-5.544,2.601-8.57,3.413c-3.145,0.844-6.373,1.232-9.646,1.517
				c-3.727,0.325-7.495,0.555-11.242,0.375c-1.716-0.082-3.449-0.249-5.102-0.662c-1.688-0.422-3.276-1.126-4.768-1.904
				c-0.216-0.112-0.629,0.133-0.471,0.34c1.732,2.262,4.971,3.104,7.995,3.425c1.198,0.227,2.412,0.398,3.632,0.517
				c3.594,0.349,7.203,0.277,10.794-0.055c6.47-0.598,12.984-2.033,18.328-5.284c2.827-1.72,5.688-3.903,7.365-6.512
				C245.844,167.298,245.582,167.111,245.226,167.113z"/>
		</g>
		<g>
			<path style="fill:#FFFFFF;" d="M140.286,178.366c-3.908,0.21-7.847-0.043-11.707-0.574c-4.104-0.564-8.169-1.44-12.052-2.699
				c-4.057-1.315-7.992-3.12-11.221-5.594c-0.124-0.095-0.247-0.192-0.37-0.289c-0.302-0.322-0.595-0.65-0.869-0.991
				c-0.116-0.707-0.2-1.418-0.241-2.132c-0.174-2.995,0.227-6.005,1.054-8.918c0.81-2.856,2.039-5.614,4.298-7.896
				c0.637-0.643,1.337-1.207,2.081-1.713c0.235-0.102,0.466-0.209,0.709-0.303c8.618-3.328,19.459-1.581,27.104,2.803
				c2.496,1.432,4.585,3.258,6.192,5.356c2.165,3.207,3.416,6.786,3.896,10.464c0.474,3.638,0.294,7.308-0.131,10.948
				C146.26,177.761,143.256,178.207,140.286,178.366z"/>
			<g>
				<g>
					
						<ellipse transform="matrix(0.7218 -0.6921 0.6921 0.7218 -77.1473 133.675)" style="fill:#92422B;" cx="127.72" cy="162.81" rx="14.656" ry="14.656"/>
					<path style="fill:#1A1716;" d="M138.632,162.946c-0.075,6.027-5.022,10.851-11.049,10.776
						c-6.027-0.075-10.851-5.022-10.776-11.049c0.075-6.027,5.022-10.851,11.049-10.776
						C133.883,151.973,138.707,156.919,138.632,162.946z"/>
					<path style="fill:#FFFFFF;" d="M126.39,156.768c-0.03,2.387-1.989,4.298-4.376,4.268c-2.387-0.03-4.297-1.989-4.268-4.376
						c0.03-2.387,1.989-4.297,4.376-4.268C124.509,152.422,126.42,154.381,126.39,156.768z"/>
					<path style="fill:#FFFFFF;" d="M118.576,163.066c-0.009,0.705-0.587,1.269-1.292,1.26c-0.705-0.009-1.269-0.587-1.26-1.292
						c0.009-0.705,0.587-1.269,1.292-1.26C118.02,161.783,118.585,162.361,118.576,163.066z"/>
				</g>
			</g>
			<path d="M142.739,158.509c-1.414-1.901-2.997-3.671-4.811-5.19c-3.684-3.085-8.059-4.668-12.785-5.329
				c-2.626-0.367-5.346-0.42-7.962,0.06c-1.152,0.211-2.286,0.513-3.41,0.853c-3.256,0.689-6.528,1.512-9.869,1.545
				c-1.578,0.016-3.245-0.147-4.665-0.889c-0.883-0.461-1.565-1.125-2.066-1.924c0.121-0.015,0.26,0.008,0.408,0.081
				c5.433,2.68,11.166-0.287,16.376-2.067c5.135-1.755,10.591-2.814,16.022-2.13c5.224,0.658,10.311,3.02,13.838,6.982
				c1.986,2.231,3.518,4.862,4.648,7.653c0.578,2.525,0.918,5.115,1.136,7.668c0.186,2.177,0.277,4.358,0.323,6.541
				c-0.579-2.374-1.44-4.682-2.517-6.85C146.165,163.018,144.603,160.624,142.739,158.509z"/>
			<path style="fill:#6F2F1A;" d="M103.033,167.113c0.182-0.055,0.413-0.034,0.613,0.109c1.257,0.9,2.285,2.013,3.52,2.941
				c1.187,0.893,2.487,1.669,3.833,2.382c2.685,1.421,5.545,2.601,8.57,3.413c3.145,0.844,6.373,1.232,9.646,1.517
				c3.727,0.325,7.495,0.555,11.242,0.375c1.716-0.082,3.449-0.249,5.102-0.662c1.688-0.422,3.276-1.126,4.768-1.904
				c0.216-0.112,0.629,0.133,0.471,0.34c-1.732,2.262-4.971,3.104-7.995,3.425c-1.198,0.227-2.412,0.398-3.632,0.517
				c-3.594,0.349-7.203,0.277-10.794-0.055c-6.47-0.598-12.983-2.033-18.328-5.284c-2.827-1.72-5.688-3.903-7.365-6.512
				C102.415,167.298,102.677,167.111,103.033,167.113z"/>
		</g>
		<path style="fill:#3C1600;" d="M154.982,132.934c-0.844-0.33-1.678-0.686-2.509-0.975c-2.441-0.848-5.008-1.416-7.533-1.948
			c-4.694-0.989-9.566-1.477-14.35-1.76c-4.722-0.279-9.416-0.119-14.105,0.519c-4.115,0.56-8.221,1.415-12.212,2.569
			c-2.746,0.794-5.564,1.777-8.018,3.305c0.78-2.564,1.639-5.041,2.86-7.25c1.293-1.76,2.855-3.31,4.817-4.507
			c4.189-2.555,9.16-3.637,13.993-4.101c4.857-0.466,9.763-0.32,14.615,0.132c5.286,0.492,11.07,0.416,15.644,3.524
			c1.989,1.352,3.561,3.319,4.759,5.382c0.385,0.662,0.736,1.354,1.047,2.065c-0.002,0.064,0.002,0.127-0.001,0.191
			c0.135,0.265,0.267,0.521,0.391,0.776C154.63,131.535,154.835,132.229,154.982,132.934z"/>
		<g>
			<path style="fill:#F07D77;" d="M202.756,225.457c-5.715-0.045-11.247-1.512-16.818-2.625c-2.491-0.498-5.373-1.286-7.885-0.541
				c-1.014,0.301-1.879,0.891-2.565,1.691c-0.273,0.318-0.508,0.661-0.738,1.007c-0.23-0.346-0.465-0.689-0.738-1.007
				c-0.686-0.8-1.551-1.39-2.565-1.691c-2.513-0.744-5.394,0.043-7.885,0.541c-5.57,1.113-11.103,2.58-16.818,2.625
				c-0.506,0.004-1.17,0.563-0.865,1.099c1.426,2.505,2.606,5.158,4.267,7.523c1.65,2.349,3.704,4.43,6.158,5.937
				c2.531,1.554,5.386,2.544,8.291,3.114c2.83,0.555,5.75,0.897,8.634,0.941c0.504,0.008,1.011,0.002,1.52-0.01
				c0.509,0.013,1.016,0.018,1.52,0.01c2.884-0.044,5.804-0.386,8.634-0.941c2.906-0.57,5.76-1.56,8.291-3.114
				c2.455-1.507,4.508-3.588,6.158-5.937c1.661-2.365,2.842-5.019,4.267-7.523C203.925,226.02,203.262,225.461,202.756,225.457z"/>
			<path style="fill:#D7513D;" d="M205.999,223.909c-0.443-0.33-1.019-0.256-1.504-0.079c-0.339,0.123-0.642,0.327-0.943,0.521
				c-0.278,0.179-0.557,0.357-0.826,0.549c-0.578,0.411-1.207,0.992-1.408,1.701c-0.699,0.334-1.42,0.632-2.131,0.923
				c-1.917,0.784-3.879,1.456-5.87,2.023c-3.917,1.116-7.944,1.906-11.99,2.372c-4.117,0.475-8.281,0.684-12.42,0.434
				c-4.125-0.248-8.287-0.8-12.213-2.127c-2.238-0.756-4.42-1.657-6.336-3.063c-0.865-0.635-1.667-1.313-2.633-1.799
				c-0.976-0.49-2.101-0.679-3.175-0.801c-0.635-0.072-1.039,0.805-0.673,1.082c-0.002,0.001-0.004,0.003-0.005,0.005
				c0.007,0.003,0.014,0.005,0.02,0.009c0.034,0.023,0.075,0.04,0.122,0.052c0.789,0.372,1.651,0.523,2.442,0.898
				c0.973,0.46,1.832,1.106,2.82,1.549c0.897,0.402,1.844,0.645,2.773,0.959c1.122,0.379,2.227,0.808,3.35,1.184
				c3.917,1.314,7.971,2.265,12.081,2.708c8.279,0.893,16.706,0.237,24.751-1.91c2.294-0.612,4.548-1.364,6.746-2.265
				c1.154-0.473,2.27-1.023,3.412-1.522c0.351-0.153,0.702-0.305,1.053-0.457c0.581,0.114,1.199-0.196,1.69-0.48
				c0.571-0.33,1.222-0.834,1.301-1.539C206.472,224.465,206.295,224.13,205.999,223.909z"/>
		</g>
		<path style="opacity:0.64;fill:#EB936D;" d="M178.909,209.034c-2.33-0.195-4.649,0.246-6.983-0.192
			c-2.227-0.418-4.215-1.386-6.014-2.748c-1.305-0.988-3.384-2.731-2.742-4.608c0.303-0.887,1.071-1.598,1.636-2.322
			c0.598-0.766,1.007-1.58,1.415-2.457c1.027-2.205,1.921-4.685,1.569-7.154c-0.01-0.07-0.134-0.013-0.132,0.043
			c0.087,2.676-1.291,5.109-2.498,7.408c-0.527,1.003-1.191,1.798-1.934,2.645c-0.592,0.675-1.235,1.435-1.479,2.318
			c-0.572,2.074,1.129,3.944,2.566,5.191c1.718,1.49,3.848,2.571,6.056,3.1c2.712,0.65,5.877,0.733,8.483-0.345
			C179.237,209.754,179.495,209.083,178.909,209.034z"/>
	</g>
	<path style="fill:#4A4645;" d="M268.938,139.095c-4.663-0.583-9.909-0.583-18.069-4.08s-27.395-4.663-41.967-1.749
		c-14.572,2.914-20.161,11.413-21.858,13.115c-2.836,2.845-10.492,3.497-11.949,3.206c-1.457,0.291-9.113-0.361-11.949-3.206
		c-1.697-1.702-7.286-10.2-21.858-13.115c-14.572-2.914-33.807-1.749-41.967,1.749s-13.406,3.497-18.069,4.08
		c-4.663,0.583-4.663,4.08-4.663,4.08c0.583,8.743,3.66,7.904,5.246,11.075c0.583,1.166,1.166,7.577,1.749,15.738
		c0.583,8.16,7.577,21.567,18.652,26.23c11.075,4.663,32.641,6.994,46.047,0c13.406-6.995,16.321-23.315,18.652-31.476
		c2.332-8.16,8.16-6.412,8.16-6.412s5.829-1.749,8.16,6.412c2.332,8.16,5.246,24.481,18.652,31.476
		c13.406,6.994,34.973,4.663,46.047,0c11.075-4.663,18.069-18.069,18.652-26.23c0.583-8.16,1.166-14.572,1.749-15.738
		c1.586-3.171,4.663-2.331,5.246-11.075C273.601,143.175,273.601,139.678,268.938,139.095z M145.076,191.846
		c-13.406,6.995-34.973,5.829-46.048-2.914c-11.075-8.743-11.075-28.561-9.909-36.139c0,0,0-9.909,17.486-12.823
		c17.486-2.914,33.224-3.497,45.464,4.663c0,0,7.577,4.08,8.16,13.989S158.482,184.851,145.076,191.846z M251.16,188.931
		c-11.075,8.743-32.641,9.909-46.047,2.914c-13.406-6.995-15.738-23.315-15.155-33.224c0.583-9.909,8.16-13.989,8.16-13.989
		c12.24-8.16,27.978-7.577,45.465-4.663s17.486,12.823,17.486,12.823C262.235,160.37,262.235,180.188,251.16,188.931z"/>
	<path style="fill:#58280D;" d="M274.768,70.557c-2.185-9.313-6.105-18.164-11.524-26.045c-1.276-1.856-2.634-3.656-4.075-5.385
		c-16.693-25.387-44.255-32.585-73.765-31.968c-12.39,0.259-24.702-0.543-37.116,0.68c-25.376,2.5-46.53,12.176-61.073,33.516
		c-22.123,32.464-18.718,75.897-3.718,110.509c0.35,0.808,0.714,1.61,1.083,2.41c0.009,0.028,0.019,0.056,0.028,0.084
		c0.096,0.306,0.194,0.611,0.294,0.916c0.493,0.991,0.989,1.98,1.504,2.959c0.479,0.911,0.98,1.826,1.51,2.727
		c0.48-0.137,0.975-0.604,0.959-1.003c-0.3-7.478-1.933-14.839-1.941-22.336c-0.007-5.938,0.417-11.869,1.027-17.776
		c0.128,1.036,0.27,2.07,0.365,3.11c0.098,1.083,0.192,2.169,0.389,3.24c0.186,1.008,0.444,2.163,1.102,2.983
		c0.156,0.194,0.333,0.345,0.518,0.477c0.582-0.261,1.168-0.515,1.757-0.76c9.536-3.964,19.843-5.782,30.087-6.668
		c5.143-0.445,10.299-0.648,15.459-0.715c-0.075-6.443-0.051-12.9,0.314-19.331c0.413-7.263,1.319-14.526,3.254-21.552
		c0.522-1.897,1.129-3.761,1.801-5.601c-0.711,3.872-1.511,7.727-2.202,11.604c-1.083,6.075-1.433,12.275-1.433,18.44
		c0,3.074,0.126,6.145,0.416,9.205c0.195,2.053,0.308,4.138,0.632,6.175c0.051,0.32,0.11,0.673,0.185,1.037
		c4.53-0.016,9.062,0.053,13.588,0.152c11.255,0.246,22.518,0.355,33.765,0.864c1.316,0.059,2.633,0.126,3.949,0.195
		c-0.016-0.577-0.071-1.155-0.114-1.724c-0.096-1.295-0.02-2.603,0.045-3.898c0.157-3.13,0.484-6.247,0.735-9.37
		c0.752-9.353,1.077-18.849,0.292-28.23c0.753,3.174,1.448,6.361,2.005,9.583c1.337,7.739,2.039,15.606,1.98,23.462
		c-0.026,3.483-0.232,6.961-0.609,10.422c9.622,0.579,19.229,1.416,28.798,2.579c5.711,0.694,11.394,1.587,17.101,2.304
		c1.401,0.176,2.835,0.369,4.263,0.623c0.136-0.178,0.231-0.379,0.252-0.572c0.51-4.743,0.655-9.514,0.761-14.28
		c0.101-4.569,0.31-9.14,0.37-13.71c0.015-1.172,0.014-2.346-0.002-3.519c0.08,0.435,0.162,0.869,0.243,1.304
		c0.985,5.342,1.527,10.735,1.791,16.159c0.144,2.966,0.234,5.934,0.305,8.902c0.037,1.539,0.07,3.079,0.107,4.618
		c0.016,0.666,0.042,1.333,0.064,2c0.787,0.235,1.561,0.506,2.314,0.82c0.374-0.813,0.882-1.576,1.209-2.418
		c0.582-1.501,1.003-3.064,1.358-4.632c0.648-2.863,1.16-5.78,1.619-8.685c0.584,2.498,0.534,5.155,0.426,7.7
		c-0.12,2.803-0.297,5.596-0.338,8.403c-0.074,5.081-0.342,10.14-0.657,15.205c0.324,4.452,0.827,8.891,1.519,13.3
		c4.35-9.177,8.561-18.442,11.908-28.039c3.379-9.69,5.816-19.735,6.842-29.957C277.515,90.884,277.106,80.521,274.768,70.557z
		 M256.899,113.772c0.03-0.19,0.061-0.381,0.09-0.571c0.013-0.082,0.023-0.164,0.035-0.245c0.032,0.25,0.061,0.501,0.092,0.752
		C257.044,113.704,256.968,113.728,256.899,113.772z"/>
	<path style="fill:#ED646F;" d="M302.261,357.421c-9.17-13.537-39.296-30.594-42.816-32.558c0.042-0.438,0.086-0.877,0.126-1.315
		c0,0-23.201-26.913-30.161-30.161c-6.96-3.248-8.95,2.959-8.95,2.959l2.453,2.146c0,0-14.223,100.15-34.024,144.828h23.854h13.704
		h108.94C331.249,430.816,310.987,370.303,302.261,357.421z"/>
	<path style="fill:#ED646F;" d="M117.117,298.491l2.917-2.146c0,0-1.989-6.207-8.95-2.959c-6.96,3.248-30.161,30.161-30.161,30.161
		c0.04,0.438,0.084,0.877,0.126,1.315c-3.52,1.964-33.646,19.022-42.816,32.558c-8.726,12.882-28.989,73.395-33.127,85.898h108.94
		h13.704h23.854C131.786,398.64,117.117,298.491,117.117,298.491z"/>
</g>
</svg>
